<svg id="Movies_-_Black" data-name="Movies - Black" xmlns="http://www.w3.org/2000/svg" viewBox="0 0 120 120"><path d="M113.32,108H95.84a59.92,59.92,0,1,0-36.52,12,5.17,5.17,0,0,0,.68,0h53.32a6,6,0,1,0,0-12Zm-85-34.7A13.3,13.3,0,1,1,41.6,60,13.29,13.29,0,0,1,28.29,73.3ZM60,105A13.31,13.31,0,1,1,73.3,91.7,13.3,13.3,0,0,1,60,105ZM54.2,60A5.8,5.8,0,1,1,60,65.8,5.8,5.8,0,0,1,54.2,60ZM60,41.6A13.31,13.31,0,1,1,73.3,28.29,13.3,13.3,0,0,1,60,41.6ZM78.4,60A13.31,13.31,0,1,1,91.71,73.3,13.3,13.3,0,0,1,78.4,60Z"/></svg>